
<svg width="80px" height="80px" viewBox="809 425 80 80" version="1.1" xmlns="http://www.w3.org/2000/svg" xmlns:xlink="http://www.w3.org/1999/xlink">
    <!-- Generator: Sketch 42 (36781) - http://www.bohemiancoding.com/sketch -->
    <desc>Created with Sketch.</desc>
    <defs></defs>
    <g id="Logomark-mydr-copy-2" stroke="none" stroke-width="1" fill="none" fill-rule="evenodd" transform="translate(849.000000, 465.000000) rotate(90.000000) translate(-849.000000, -465.000000) translate(809.000000, 425.000000)">
        <g id="Logomark-Copy" fill-rule="nonzero" fill="#0071F3">
            <g id="Page-1">
                <path d="M62.808322,57.711607 C61.859005,57.6970141 60.9048673,57.6499784 59.9722279,57.5721934 C59.78213,57.5561673 59.5904686,57.538708 59.3980254,57.5198155 C58.5109888,51.074216 56.1396509,44.8310921 52.5174975,39.4201501 C51.2816657,37.5740272 49.889482,35.8063408 48.3797736,34.1662113 C47.5700008,33.2866026 46.7134528,32.4299256 45.8338429,31.6202842 C44.5809426,30.46706 43.2537752,29.3825003 41.8740995,28.3838037 C46.9118895,25.2821766 52.6268136,23.2823078 58.496005,22.5780737 L58.589295,22.5675199 C59.05353,22.5129271 59.518677,22.4658913 59.9723583,22.427976 C60.9044764,22.3499305 61.8583536,22.3030249 62.808322,22.2884321 C67.425916,22.423546 71.7460505,24.3226983 74.9751091,27.6378757 C78.2155031,30.9646494 80,35.3550055 80,39.9999544 C80,44.6450336 78.2155031,49.0353897 74.9751091,52.362033 C71.7460505,55.6773408 67.4260464,57.5766233 62.808322,57.711607 Z M40.0080781,80 C35.3629922,80 30.9726296,78.2155058 27.6459814,74.9751164 C24.330799,71.7459323 22.4315137,67.4259345 22.2963996,62.8082169 C22.3109925,61.8583801 22.3580283,60.9043741 22.4359437,59.9723876 C22.4518395,59.78229 22.4692988,59.5904986 22.4881913,59.3980557 C28.9338002,58.5110202 35.1768031,56.1396859 40.5878832,52.5175378 C42.4337483,51.2819684 44.2014373,49.8897867 45.8418298,48.37982 C46.7213095,47.5701788 47.5779878,46.7136319 48.3877606,45.8337626 C49.5411168,44.5809945 50.6255478,43.253829 51.6243761,41.8740251 C54.7260078,46.911938 56.7258795,52.6267234 57.4299845,58.4960365 L57.4406685,58.5894567 C57.4952613,59.053691 57.542167,59.5188374 57.5800823,59.972127 C57.658128,60.9039833 57.7050335,61.8582499 57.7197567,62.8083471 C57.5846425,67.4259345 55.6853573,71.7459323 52.3701749,74.9751164 C49.0435267,78.2155058 44.6531642,80 40.0080781,80 Z M28.3918062,38.1259749 C25.2901745,33.088062 23.2903029,27.3732765 22.5860677,21.5039634 L22.5755139,21.4108038 C22.5210514,20.9483937 22.4741457,20.483117 22.4359698,20.0276124 C22.3579241,19.0956259 22.3110186,18.1416198 22.2964257,17.1917831 C22.4315398,12.5740655 24.3308251,8.25393733 27.6458772,5.02488354 C30.9726557,1.78462453 35.3630182,0 40.0081042,0 C44.6531902,0 49.0434225,1.78462453 52.3702009,5.02488354 C55.6853834,8.25393733 57.5846686,12.5740655 57.7196525,17.1917831 C57.7050597,18.1410986 57.658154,19.0951047 57.5801083,20.0277426 C57.5642126,20.2174494 57.5468836,20.4091106 57.5278607,20.6019443 C51.0822519,21.48911 44.8391187,23.8603141 39.4282991,27.4825924 C37.5820432,28.7184225 35.8143542,30.1104739 34.1742223,31.62018 C33.2942215,32.4304728 32.4375431,33.2870195 31.6282915,34.1662373 C30.4750656,35.4191358 29.390374,36.7464316 28.3918062,38.1259749 Z M17.191678,57.71962 C12.5739536,57.5846364 8.25394943,55.6854842 5.0248909,52.3701764 C1.78449686,49.0435331 0,44.6531768 0,40.0080977 C0,35.3630185 1.78449686,30.9726624 5.0248909,27.6460191 C8.25394943,24.3307113 12.5739536,22.431559 17.191678,22.2964451 C18.1417767,22.3110379 19.0959144,22.3580737 20.0276417,22.435989 C20.2177396,22.4518848 20.409401,22.469344 20.6019745,22.4882365 C21.4890112,28.9339663 23.8603491,35.17696 27.4825024,40.587902 C28.7183342,42.4338945 30.1103877,44.201581 31.6202263,45.8418408 C32.4298688,46.7213192 33.2864169,47.5779963 34.1661571,48.3877678 C35.4190574,49.5409921 36.7462248,50.6256821 38.1259004,51.6243786 C33.0881105,54.7258756 27.3733167,56.7257442 21.5039949,57.4298481 L21.4086203,57.440923 C20.9476426,57.495125 20.4823652,57.5421608 20.027772,57.5800761 C19.0966962,57.6579913 18.142819,57.7050271 17.191678,57.71962 Z" id="Logomark-Copy"></path>
            </g>
        </g>
    </g>
</svg>
